<?xml version="1.0" encoding="utf-8"?>
<!-- Generator: Adobe Illustrator 20.0.0, SVG Export Plug-In . SVG Version: 6.00 Build 0)  -->
<svg version="1.1" id="Layer_1" xmlns="http://www.w3.org/2000/svg" xmlns:xlink="http://www.w3.org/1999/xlink" x="0px" y="0px"
	 width="107px" height="114.9px" viewBox="0 0 107 114.9" style="enable-background:new 0 0 107 114.9;" xml:space="preserve">
<style type="text/css">
	.st0{fill:#000000;}
</style>
<g>
	<path class="st0" d="M13,79h12V51.3c-2-0.6-2.4-2-2.4-3.6c0-1.6,0.4-3,2.4-3.6V19.4c-2-0.6-2.5-2-2.5-3.6c0-2.2,1.7-4.1,3.8-4.1
		c1.6,0,2.9,1.2,3.5,2.2h46c0.6-1,2-2.2,3.6-2.2c2.2,0,3.9,1.8,3.9,4c0,1.6-1.4,3.1-2.4,3.7v24.8c1,0.6,2.4,2,2.4,3.6
		c0,1.6-1.4,3-2.4,3.6V65H43.2c-0.6,2-2,2.5-3.6,2.5c-2.2,0-3.9-1.7-3.9-3.9c0-1.6,1.3-2.9,2.3-3.5V35.4c-1-0.6-2.3-2-2.3-3.6
		c0-2.2,1.8-4,3.9-4c1.6,0,3,1.2,3.6,2.2h19.5c0.6-1,2-2.2,3.6-2.2c2.2,0,4,1.8,4,4c0,1.6-1.3,3-2.3,3.6v8.8c1,0.6,2.3,2,2.3,3.6
		c0,2.2-1.8,3.8-4,3.8c-1.6,0-3-0.5-3.6-2.5H51v-3h11.7c0.4-1,1.3-1.4,2.3-1.8v-8.8C64,35,63.1,34,62.7,33H43.2
		c-0.4,1-1.2,2-2.2,2.4v24.8c1,0.4,1.8,0.9,2.2,1.9H78V51.3c-1-0.6-2.4-2-2.4-3.6c0-1.6,1.4-3,2.4-3.6V19.4C77,19,76.4,18,76,17h-46
		c-0.4,1-0.9,2-1.9,2.4v24.8c1,0.6,2.4,2,2.4,3.6c0,1.6-1.4,3-2.4,3.6V79h65V0H13V79z"/>
	<path class="st0" d="M13.1,93.6c-0.6-0.6-1.4-0.9-2.3-1.2C9.9,92.1,9,92,8,92H0v22h2v-8h5.5c1.1,0,2.1-0.4,3.1-0.7
		c0.9-0.3,1.7-0.9,2.4-1.4c0.7-0.6,1.2-1.4,1.6-2.2c0.4-0.9,0.6-1.9,0.6-3c0-1.1-0.2-2.1-0.5-3C14.2,94.8,13.7,94.1,13.1,93.6z
		 M7.5,103H2v-9h5.9c1.5,0,2.7,0.5,3.5,1.3c0.8,0.8,1.2,1.8,1.2,3.3C12.6,101.6,10.9,103,7.5,103z"/>
	<path class="st0" d="M38.6,102.5c1-1.1,1.4-2.5,1.4-4.2c0-1.1-0.2-2-0.5-2.8c-0.4-0.8-0.9-1.4-1.5-2c-0.6-0.5-1.4-0.9-2.2-1.1
		C35,92.1,34,92,33.1,92H24v22h3v-9h5l4.8,9h2.9l-4.9-9.6C36.4,104.1,37.6,103.6,38.6,102.5z M36.3,101.2c-0.8,0.7-2,0.8-3.7,0.8H27
		v-8h6c1.5,0,2.6,0.4,3.4,1.1c0.8,0.7,1.2,1.6,1.2,3C37.5,99.6,37.1,100.5,36.3,101.2z"/>
	<path class="st0" d="M74.6,105.4c-0.1,0.3-0.3,0.7-0.4,1.1c-0.2,0.4-0.3,0.8-0.5,1.2c-0.1,0.4-0.3,0.8-0.4,1.1
		c-0.1,0.4-0.2,0.7-0.3,0.9c-0.1-0.2-0.2-0.5-0.3-0.9c-0.1-0.4-0.3-0.7-0.4-1.1c-0.1-0.4-0.3-0.8-0.5-1.2c-0.2-0.4-0.3-0.7-0.4-1.1
		L66.1,92H63v22h3V99.2v-2.4c0,0.2,0,0.5,0.1,0.8c0.1,0.3,0.1,0.6,0.3,1c0.1,0.3,0.2,0.7,0.3,1c0.1,0.4,0.2,0.7,0.4,0.9l5.9,14.5
		l6-14.5c0.1-0.3,0.3-0.6,0.4-1c0.1-0.3,0.3-0.7,0.4-1c0.1-0.3,0.1-0.7,0.2-1C80,97.2,80,97,80,96.8v2.4V114h3V92h-3L74.6,105.4z"/>
	<polygon class="st0" points="96,112 96,104 102,104 102,101 96,101 96,94 107,94 107,92 93,92 93,114 107,114 107,112 	"/>
	<path class="st0" d="M51.3,91.3c-1.7,0-3.1,1.4-3.1,3.1c0,1.2,0.8,2.3,1.8,2.8V114h3V97.2c1-0.5,1.7-1.6,1.7-2.9
		C54.7,92.6,53,91.3,51.3,91.3z"/>
</g>
</svg>
